<svg width="25" height="25" viewBox="0 0 25 25" fill="none" xmlns="http://www.w3.org/2000/svg">
<g clip-path="url(#clip0_1_10291)">
<path d="M24.2663 12.7765C24.2663 11.9608 24.2001 11.1406 24.059 10.3381H12.7402V14.9591H19.222C18.953 16.4495 18.0888 17.7679 16.8233 18.6056V21.604H20.6903C22.9611 19.514 24.2663 16.4274 24.2663 12.7765Z" fill="#4285F4"/>
<path d="M12.7391 24.5008C15.9756 24.5008 18.705 23.4382 20.6936 21.6039L16.8266 18.6055C15.7507 19.3375 14.3618 19.752 12.7435 19.752C9.61291 19.752 6.95849 17.6399 6.00607 14.8003H2.01562V17.8912C4.05274 21.9434 8.20192 24.5008 12.7391 24.5008Z" fill="#34A853"/>
<path d="M6.00277 14.8002C5.50011 13.3099 5.50011 11.696 6.00277 10.2057V7.11475H2.01674C0.314734 10.5055 0.314734 14.5004 2.01674 17.8912L6.00277 14.8002Z" fill="#FBBC04"/>
<path d="M12.7391 5.24966C14.4499 5.2232 16.1034 5.86697 17.3425 7.04867L20.7685 3.62262C18.5991 1.5855 15.7198 0.465534 12.7391 0.500809C8.20192 0.500809 4.05274 3.05822 2.01562 7.11481L6.00166 10.2058C6.94967 7.36173 9.6085 5.24966 12.7391 5.24966Z" fill="#EA4335"/>
</g>
<defs>
<clipPath id="clip0_1_10291">
<rect width="24" height="24" fill="white" transform="translate(0.5 0.5)"/>
</clipPath>
</defs>
</svg>
